<mxfile host="app.diagrams.net" modified="2023-09-17T04:19:52.944Z" agent="Mozilla/5.0 (Windows NT 10.0; Win64; x64) AppleWebKit/537.36 (KHTML, like Gecko) Chrome/116.0.0.0 Safari/537.36" etag="5zOfsWrQMfmmF0HkjGnU" version="21.7.5" type="github">
  <diagram name="第 1 页" id="W6Fj_rsfh2s28kM5z5f6">
    <mxGraphModel dx="724" dy="401" grid="1" gridSize="10" guides="1" tooltips="1" connect="1" arrows="1" fold="1" page="1" pageScale="1" pageWidth="827" pageHeight="1169" math="0" shadow="0">
      <root>
        <mxCell id="0" />
        <mxCell id="1" parent="0" />
        <mxCell id="ujbZRinPxCOq5WzfvrQW-29" style="rounded=0;orthogonalLoop=1;jettySize=auto;html=1;exitX=0.5;exitY=1;exitDx=0;exitDy=0;" edge="1" parent="1" source="FAbxvQYFkvHhqmhZ71KA-1" target="ujbZRinPxCOq5WzfvrQW-23">
          <mxGeometry relative="1" as="geometry" />
        </mxCell>
        <mxCell id="ujbZRinPxCOq5WzfvrQW-30" style="rounded=0;orthogonalLoop=1;jettySize=auto;html=1;exitX=0.5;exitY=1;exitDx=0;exitDy=0;entryX=0.5;entryY=0;entryDx=0;entryDy=0;" edge="1" parent="1" source="FAbxvQYFkvHhqmhZ71KA-1" target="ujbZRinPxCOq5WzfvrQW-6">
          <mxGeometry relative="1" as="geometry" />
        </mxCell>
        <mxCell id="ujbZRinPxCOq5WzfvrQW-31" style="rounded=0;orthogonalLoop=1;jettySize=auto;html=1;exitX=0.5;exitY=1;exitDx=0;exitDy=0;entryX=0.5;entryY=0;entryDx=0;entryDy=0;" edge="1" parent="1" source="FAbxvQYFkvHhqmhZ71KA-1" target="ujbZRinPxCOq5WzfvrQW-9">
          <mxGeometry relative="1" as="geometry" />
        </mxCell>
        <mxCell id="FAbxvQYFkvHhqmhZ71KA-1" value="3" style="ellipse;whiteSpace=wrap;html=1;aspect=fixed;" parent="1" vertex="1">
          <mxGeometry x="260" y="380" width="40" height="40" as="geometry" />
        </mxCell>
        <mxCell id="ujbZRinPxCOq5WzfvrQW-4" value="13" style="ellipse;whiteSpace=wrap;html=1;aspect=fixed;" vertex="1" parent="1">
          <mxGeometry x="260" y="580" width="40" height="40" as="geometry" />
        </mxCell>
        <mxCell id="ujbZRinPxCOq5WzfvrQW-7" style="rounded=0;orthogonalLoop=1;jettySize=auto;html=1;exitX=0.5;exitY=1;exitDx=0;exitDy=0;entryX=0.5;entryY=0;entryDx=0;entryDy=0;" edge="1" parent="1" source="ujbZRinPxCOq5WzfvrQW-6" target="ujbZRinPxCOq5WzfvrQW-4">
          <mxGeometry relative="1" as="geometry" />
        </mxCell>
        <mxCell id="ujbZRinPxCOq5WzfvrQW-6" value="9" style="ellipse;whiteSpace=wrap;html=1;aspect=fixed;" vertex="1" parent="1">
          <mxGeometry x="260" y="480" width="40" height="40" as="geometry" />
        </mxCell>
        <mxCell id="ujbZRinPxCOq5WzfvrQW-11" style="rounded=0;orthogonalLoop=1;jettySize=auto;html=1;exitX=0.5;exitY=1;exitDx=0;exitDy=0;entryX=0.5;entryY=0;entryDx=0;entryDy=0;" edge="1" parent="1" source="ujbZRinPxCOq5WzfvrQW-9" target="ujbZRinPxCOq5WzfvrQW-10">
          <mxGeometry relative="1" as="geometry" />
        </mxCell>
        <mxCell id="ujbZRinPxCOq5WzfvrQW-15" style="rounded=0;orthogonalLoop=1;jettySize=auto;html=1;exitX=0.5;exitY=1;exitDx=0;exitDy=0;entryX=0.5;entryY=0;entryDx=0;entryDy=0;" edge="1" parent="1" source="ujbZRinPxCOq5WzfvrQW-9" target="ujbZRinPxCOq5WzfvrQW-12">
          <mxGeometry relative="1" as="geometry" />
        </mxCell>
        <mxCell id="ujbZRinPxCOq5WzfvrQW-9" value="5" style="ellipse;whiteSpace=wrap;html=1;aspect=fixed;" vertex="1" parent="1">
          <mxGeometry x="340" y="480" width="40" height="40" as="geometry" />
        </mxCell>
        <mxCell id="ujbZRinPxCOq5WzfvrQW-10" value="11" style="ellipse;whiteSpace=wrap;html=1;aspect=fixed;" vertex="1" parent="1">
          <mxGeometry x="340" y="585" width="40" height="40" as="geometry" />
        </mxCell>
        <mxCell id="ujbZRinPxCOq5WzfvrQW-14" style="rounded=0;orthogonalLoop=1;jettySize=auto;html=1;exitX=0.5;exitY=1;exitDx=0;exitDy=0;" edge="1" parent="1" source="ujbZRinPxCOq5WzfvrQW-12" target="ujbZRinPxCOq5WzfvrQW-13">
          <mxGeometry relative="1" as="geometry" />
        </mxCell>
        <mxCell id="ujbZRinPxCOq5WzfvrQW-12" value="7" style="ellipse;whiteSpace=wrap;html=1;aspect=fixed;" vertex="1" parent="1">
          <mxGeometry x="414" y="585" width="40" height="40" as="geometry" />
        </mxCell>
        <mxCell id="ujbZRinPxCOq5WzfvrQW-13" value="15" style="ellipse;whiteSpace=wrap;html=1;aspect=fixed;" vertex="1" parent="1">
          <mxGeometry x="414" y="680" width="40" height="40" as="geometry" />
        </mxCell>
        <mxCell id="ujbZRinPxCOq5WzfvrQW-21" style="rounded=0;orthogonalLoop=1;jettySize=auto;html=1;exitX=0.5;exitY=1;exitDx=0;exitDy=0;entryX=0.5;entryY=0;entryDx=0;entryDy=0;" edge="1" parent="1" source="ujbZRinPxCOq5WzfvrQW-19" target="ujbZRinPxCOq5WzfvrQW-20">
          <mxGeometry relative="1" as="geometry" />
        </mxCell>
        <mxCell id="ujbZRinPxCOq5WzfvrQW-19" value="8" style="ellipse;whiteSpace=wrap;html=1;aspect=fixed;" vertex="1" parent="1">
          <mxGeometry x="100" y="380" width="40" height="40" as="geometry" />
        </mxCell>
        <mxCell id="ujbZRinPxCOq5WzfvrQW-20" value="12" style="ellipse;whiteSpace=wrap;html=1;aspect=fixed;" vertex="1" parent="1">
          <mxGeometry x="100" y="480" width="40" height="40" as="geometry" />
        </mxCell>
        <mxCell id="ujbZRinPxCOq5WzfvrQW-23" value="4" style="ellipse;whiteSpace=wrap;html=1;aspect=fixed;" vertex="1" parent="1">
          <mxGeometry x="190" y="480" width="40" height="40" as="geometry" />
        </mxCell>
      </root>
    </mxGraphModel>
  </diagram>
</mxfile>
